<svg width="205" height="999" viewBox="0 0 205 999" fill="none" xmlns="http://www.w3.org/2000/svg">
<path d="M65.411 855.945L47.4616 831.552L107.454 834.455L107.501 834.457L107.549 834.455L164.752 831.546L150.034 855.945H65.411ZM30.6467 916.869C30.6467 896.357 43.1251 872.731 65.2184 857.858H150.257C170.246 872.792 183.55 896.731 183.55 916.869C183.55 933.261 173.438 953.574 158.735 969.836C144.027 986.102 124.975 998.044 107.342 998.044C100.7 998.044 92.5768 995.098 84.0661 990.048C75.577 985.011 66.7967 977.935 58.8618 969.809C50.9271 961.683 43.8607 952.529 38.7833 943.35C33.6995 934.158 30.6467 925.007 30.6467 916.869Z" fill="#001623" stroke="black" stroke-width="1.9125"/>
<path fill-rule="evenodd" clip-rule="evenodd" d="M12.3472 805.616C7.95105 804.843 5.25383 803.649 3.7498 802.109C3.13398 800.994 2.60995 799.689 2.16661 798.213C2.18944 799.676 2.65152 800.985 3.7498 802.109C5.35013 805.008 7.57011 806.625 10.6038 806.625C11.2888 806.625 11.8641 806.273 12.3472 805.616Z" fill="#111F2A"/>
<path d="M34.0531 779.451C33.9925 776.447 33.9303 773.361 33.9303 770.288C33.9303 767.249 33.9964 764.331 34.0587 761.583C34.3489 748.766 34.5545 739.688 27.5681 739.688C20.9739 739.688 16.0837 740.077 12.5163 740.808C14.8994 744.181 14.8778 754.813 14.8511 767.901C14.8483 769.307 14.8453 770.743 14.8453 772.2C14.8453 773.647 14.8482 775.084 14.8511 776.503C14.8783 790.127 14.9024 802.14 12.3472 805.616C16.0872 806.273 21.057 806.625 27.5678 806.625C34.6006 806.625 34.3462 793.997 34.0531 779.451Z" fill="#111F2A"/>
<path d="M2.16661 798.213C2.60995 799.689 3.13398 800.994 3.7498 802.109C5.25383 803.649 7.95105 804.843 12.3472 805.616C14.9024 802.14 14.8783 790.127 14.8511 776.503C14.8482 775.084 14.8453 773.647 14.8453 772.2C14.8453 770.743 14.8483 769.307 14.8511 767.901C14.8778 754.813 14.8994 744.181 12.5163 740.808C0.834323 743.201 3.33772 749.251 6.64354 757.24C8.49668 761.718 10.602 766.806 10.602 772.2C10.602 777.694 8.02149 783.048 5.71487 787.834C3.82615 791.753 2.12104 795.291 2.16661 798.213Z" fill="#111F2A"/>
<path d="M10.6038 739.688C2.12076 739.688 0 758.069 0 776.025C0 785.089 0.540363 792.799 2.16661 798.213C2.12104 795.291 3.82615 791.753 5.71487 787.834C8.02149 783.048 10.602 777.694 10.602 772.2C10.602 766.806 8.49668 761.718 6.64354 757.24C3.33772 749.251 0.834323 743.201 12.5163 740.808C11.9999 740.077 11.3705 739.688 10.6038 739.688Z" fill="#111F2A"/>
<path d="M119.736 28.2031V122.458L70.6129 171.909L70.335 172.189V172.583V191.312L61.6685 199.884L54.0963 191.348V172.583V172.267L53.9081 172.014L38.4655 151.196C38.5243 150.202 38.8652 148.998 39.4699 147.679C40.1322 146.234 41.0851 144.708 42.2325 143.254C44.5444 140.323 47.5484 137.806 50.3819 136.794L52.9025 135.894L50.3819 134.993C47.3929 133.925 45.1335 132.619 43.6297 131.051C42.1493 129.507 41.3718 127.681 41.3718 125.461C41.3718 123.24 42.1493 121.414 43.6297 119.87C45.1335 118.302 47.3929 116.996 50.3819 115.928L52.9025 115.028L50.3819 114.127C47.3929 113.059 45.1335 111.753 43.6297 110.185C42.1493 108.641 41.3718 106.815 41.3718 104.594C41.3718 102.374 42.1493 100.548 43.6297 99.0042C45.1335 97.4359 47.3929 96.1297 50.3819 95.0619L52.9025 94.1614L50.3819 93.2609C47.3929 92.193 45.1335 90.8868 43.6297 89.3185C42.1493 87.7745 41.3718 85.9484 41.3718 83.7283C41.3718 81.5081 42.1493 79.6821 43.6297 78.1381C45.1335 76.5697 47.3929 75.2636 50.3819 74.1957L52.9025 73.2952L50.3819 72.3947C47.3929 71.3268 45.1335 70.0207 43.6297 68.4523C42.1493 66.9083 41.3718 65.0823 41.3718 62.8621C41.3718 60.642 42.1493 58.8159 43.6297 57.2719C45.1335 55.7035 47.3929 54.3974 50.3819 53.3295L52.9025 52.429L50.3819 51.5285C47.3929 50.4606 45.1335 49.1545 43.6297 47.5862C42.1493 46.0422 41.3718 44.2161 41.3718 41.9959C41.3718 38.8686 43.5343 36.3525 47.8961 34.3371C52.246 32.3272 58.5125 30.9583 66.079 30.0397C81.0085 28.2272 100.647 28.2034 119.736 28.2031ZM169.262 51.5183L166.418 52.429L169.262 53.3397C172.627 54.417 175.186 55.7357 176.892 57.3176C178.57 58.8733 179.429 60.6867 179.429 62.8621C179.429 65.0375 178.57 66.8509 176.892 68.4066C175.186 69.9885 172.627 71.3072 169.262 72.3845L166.418 73.2952L169.262 74.2059C172.627 75.2832 175.186 76.6019 176.892 78.1838C178.57 79.7395 179.429 81.5529 179.429 83.7283C179.429 85.9037 178.57 87.717 176.892 89.2728C175.186 90.8547 172.627 92.1734 169.262 93.2507L166.418 94.1614L169.262 95.0721C172.627 96.1494 175.186 97.4681 176.892 99.0499C178.57 100.606 179.429 102.419 179.429 104.594C179.429 106.77 178.57 108.583 176.892 110.139C175.186 111.721 172.627 113.04 169.262 114.117L166.418 115.028L169.262 115.938C172.627 117.016 175.186 118.334 176.892 119.916C178.57 121.472 179.429 123.285 179.429 125.461C179.429 127.636 178.57 129.449 176.892 131.005C175.186 132.587 172.627 133.906 169.262 134.983L166.418 135.894L169.262 136.804C172.627 137.882 175.186 139.2 176.892 140.782C178.57 142.338 179.429 144.151 179.429 146.327V165.859L147.41 122.537V28.2844C156.299 29.0289 164.288 30.1854 170.1 32.1442C173.119 33.1618 175.477 34.3722 177.066 35.7945C178.63 37.1953 179.429 38.778 179.429 40.6238C179.429 44.9998 175.889 49.3966 169.262 51.5183Z" fill="#011B1D" stroke="black" stroke-width="1.9125"/>
<path d="M33.9335 818.561V730.586L44.5373 711.461V361.473C44.5373 344.261 42.4166 342.348 53.0204 330.873V273.498C40.1857 271.63 38.1751 267.76 38.1751 256.286V152.549L53.0204 172.135V191.26L61.5034 198.91L69.9865 191.26V172.135L118.764 124.323V26.7851C108.158 26.7851 65.1432 28.4906 44.5354 33.9739L28.502 18.6739C93.4125 -4.32222 131.258 -5.45359 202.404 18.6739L184.508 35.8864C184.508 35.8864 156.94 26.7851 148.455 26.7851V124.323L184.508 172.135V256.286C184.508 273.498 173.635 272.106 165.421 273.498V332.786C176.025 342.348 173.904 348.086 173.904 363.386V407.373L165.421 413.491C161.147 413.491 156.897 413.659 152.694 413.996L150.573 729.056L154.817 730.586L178.145 730.586V818.561L167.54 830.036C126.101 834.789 89.4112 835.391 44.5373 830.036L33.9335 818.561Z" fill="url(#paint0_linear_35_44)"/>
<path d="M53.0204 273.498V330.873C42.4166 342.348 44.5373 344.261 44.5373 361.473V711.461L33.9335 730.586V818.561L44.5373 830.036C89.4112 835.391 126.101 834.789 167.54 830.036L178.145 818.561V730.586L154.817 730.586L150.573 729.056M53.0204 273.498C40.1857 271.63 38.1751 267.76 38.1751 256.286V152.549L53.0204 172.135V191.26L61.5034 198.91L69.9865 191.26V172.135L118.764 124.323C118.764 124.323 118.764 64.876 118.764 26.7851M53.0204 273.498H165.421M118.764 26.7851C108.158 26.7851 65.1432 28.4906 44.5354 33.9739L28.502 18.6739C93.4125 -4.32222 131.258 -5.45359 202.404 18.6739L184.508 35.8864C184.508 35.8864 156.94 26.7851 148.455 26.7851M118.764 26.7851C127.245 26.7851 139.97 26.7851 148.455 26.7851M148.455 26.7851C148.455 64.876 148.455 124.323 148.455 124.323L184.508 172.135V256.286C184.508 273.498 173.635 272.106 165.421 273.498M165.421 273.498V332.786C176.025 342.348 173.904 348.086 173.904 363.386V407.373L165.421 413.491C125.126 413.491 86.9526 428.411 69.9865 459.011V711.461L84.8318 722.936H133.609L150.573 729.056M152.694 413.996L150.573 729.056" stroke="#ACCCC4" stroke-width="1.9125"/>
<path d="M173.902 349.537H45.444C44.4809 340.743 46.5 337 53.0237 332.324H165.424C171.5 339.5 173.902 343 173.902 349.537Z" stroke="#ACCCC4" stroke-width="1.9125"/>
<path d="M67.8643 459.086C78.2324 424.241 121.779 414.562 161.178 414.562V464.893H107.263C92.7479 472.637 88.6006 476.508 96.8951 484.252H161.178V502.75H96.8951C91.0834 510.416 89.5883 514.423 96.8951 521.032H161.178V540.391H96.8951C92.0543 545.722 90.7205 549.214 96.8951 555.877H161.178V575.236H96.8951C90.5417 582.157 91.9512 585.475 96.8951 590.722H161.178V610.08H96.8951C90.9889 616.643 91.9369 619.928 96.8951 625.567H161.178V644.925H96.8951C91.8709 651.257 91.3202 654.772 96.8951 660.412H161.178V679.77H96.8951C91.801 686.662 90.8595 690.462 96.8951 697.193H161.178V732.038H150.81L134.221 724.294H84.4533L69.9379 712.679L67.8643 459.086Z" fill="#001F21" stroke="black" stroke-width="1.9125"/>
<path d="M172.946 229.049C172.946 240.049 163.025 249.131 150.574 249.131C138.123 249.131 128.202 240.049 128.202 229.049C128.202 218.049 138.123 208.968 150.574 208.968C163.025 208.968 172.946 218.049 172.946 229.049Z" fill="#402029" stroke="#A38D90" stroke-width="1.9125"/>
<ellipse cx="137.85" cy="148.724" rx="14.8453" ry="13.3875" fill="url(#paint1_linear_35_44)"/>
<ellipse cx="137.85" cy="148.724" rx="6.36228" ry="5.73751" fill="#658B89"/>
<defs>
<linearGradient id="paint0_linear_35_44" x1="143" y1="434" x2="62" y2="434" gradientUnits="userSpaceOnUse">
<stop offset="0.119792" stop-color="#658B89"/>
<stop offset="0.665937" stop-color="#CEDCD6"/>
<stop offset="1" stop-color="#809C90" stop-opacity="0.96"/>
</linearGradient>
<linearGradient id="paint1_linear_35_44" x1="123" y1="149" x2="157" y2="149" gradientUnits="userSpaceOnUse">
<stop stop-color="#E7FFFA"/>
<stop offset="1" stop-color="#E7FFFA" stop-opacity="0"/>
</linearGradient>
</defs>
</svg>
