<svg width="283" height="979" viewBox="0 0 283 979" fill="none" xmlns="http://www.w3.org/2000/svg">
<path d="M179.229 639.939H85.2441L79.8728 946.373L93.2992 977.017H160.431L165.802 924.087L175.047 904.587L179.229 639.939Z" fill="url(#paint0_linear_60_44)"/>
<path fill-rule="evenodd" clip-rule="evenodd" d="M55.7051 904.587L58.3904 353.006L189.969 266.647L179.819 643.904H104.008C98.6695 643.904 98.6695 659.44 104.04 659.44H179.626C181.913 659.44 181.913 676.154 179.626 676.154H90.6136C82.5578 676.154 82.5578 692.869 90.6136 692.869H179.204C181.913 692.869 181.913 720.727 178.501 720.727H90.6136C82.5578 720.727 82.5578 737.441 90.6136 737.441H178.078C179.228 737.441 179.228 765.299 177.373 765.299H90.4711C82.4153 765.299 82.5578 779.228 90.6136 779.228H177.094C179.228 779.228 179.228 807.085 176.269 807.085H90.493C82.4372 807.085 82.5578 821.014 90.6136 821.014H175.968C179.228 821.014 179.228 847.275 175.314 847.275H90.5023C82.4465 847.275 82.5578 861.568 90.6136 861.568H174.983C179.228 861.568 178.806 890.658 173.857 890.658H90.1915C82.1357 890.658 82.5578 904.587 90.6136 904.587H173.857C176.542 904.587 179.228 926.873 165.801 926.873H120.152L79.8725 948.045L55.7051 904.587Z" fill="url(#paint1_linear_60_44)"/>
<path d="M173.857 904.587V890.658M173.857 904.587H90.6136C82.5578 904.587 82.1357 890.658 90.1915 890.658H173.857M173.857 904.587C176.542 904.587 179.228 926.873 165.801 926.873M179.626 676.154H90.6136C82.5578 676.154 82.5578 692.869 90.6136 692.869H179.204M179.626 676.154L179.204 692.869M179.626 676.154C181.913 676.154 181.913 659.44 179.626 659.44M179.204 692.869C181.913 692.869 181.913 720.727 178.501 720.727M178.501 720.727H90.6136C82.5578 720.727 82.5578 737.441 90.6136 737.441H178.078M178.501 720.727L178.078 737.441M178.078 737.441C179.228 737.441 179.228 765.299 177.373 765.299M177.373 765.299H90.4711C82.4153 765.299 82.5578 779.228 90.6136 779.228H177.094M177.373 765.299L177.094 779.228M177.094 779.228C179.228 779.228 179.228 807.085 176.269 807.085M176.269 807.085H90.493C82.4372 807.085 82.5578 821.014 90.6136 821.014H175.968M176.269 807.085L175.968 821.014M175.968 821.014C179.228 821.014 179.228 847.275 175.314 847.275M175.314 847.275H90.5023C82.4465 847.275 82.5578 861.568 90.6136 861.568H174.983M175.314 847.275L174.983 861.568M174.983 861.568C179.228 861.568 178.806 890.658 173.857 890.658M165.801 926.873H120.152L79.8725 948.045M165.801 926.873C164.849 932.764 164.549 939.128 164.236 945.763C163.763 955.794 163.261 966.444 160.431 977.017H93.2989L79.8725 948.045M79.8725 948.045L55.7051 904.587L58.3904 353.006L189.969 266.647L179.819 643.904M179.626 659.44H104.04C98.6695 659.44 98.6695 643.904 104.008 643.904H179.819M179.626 659.44L179.819 643.904" stroke="black" stroke-width="2.68527"/>
<path d="M208.767 116.216L203.397 237.462L58.8181 325.148L63.7624 2L200 54L208.767 116.216Z" fill="url(#paint2_linear_60_44)" stroke="black" stroke-width="2.68527"/>
<path d="M10.0558 383.649L58.3907 353.006L189.969 266.647L246.36 233.218L281.268 96.7158L267.842 85.5728L232.934 219.289L203.396 237.462L58.3907 326.671L2 361.363L10.0558 383.649Z" fill="url(#paint3_linear_60_44)" stroke="black" stroke-width="2.68527"/>
<path d="M138.949 105.073L203.396 110.645C214.137 110.645 214.137 135.717 203.396 135.717C214.137 135.717 211.451 163.574 203.396 163.574C214.137 163.574 211.451 194.218 203.396 194.218C211.451 194.218 211.451 224.861 203.396 224.861L138.949 219.289V188.646V158.003V130.145V105.073Z" fill="url(#paint4_linear_60_44)"/>
<path d="M138.949 130.145V105.073L203.396 110.645C214.137 110.645 214.137 135.717 203.396 135.717M138.949 130.145L203.396 135.717M138.949 130.145V158.003M203.396 135.717C214.137 135.717 211.451 163.574 203.396 163.574M138.949 158.003L203.396 163.574M138.949 158.003V188.646M203.396 163.574C214.137 163.574 211.451 194.218 203.396 194.218M138.949 188.646L203.396 194.218M138.949 188.646V219.289L203.396 224.861C211.451 224.861 211.451 194.218 203.396 194.218" stroke="black" stroke-width="2.68527"/>
<path d="M87.9287 624.561H180.035L179.712 604.04H106.726V321.167L87.9287 333.505V624.561Z" fill="url(#paint5_linear_60_44)"/>
<path d="M125.523 575.628V309.499L149.69 292.919V559.152H181.59V575.628H125.523Z" fill="url(#paint6_linear_60_44)"/>
<path d="M87.9287 624.561H180.035L179.712 604.04H106.726V321.167L87.9287 333.505V624.561Z" stroke="black" stroke-width="2.68527"/>
<path d="M125.523 575.628V309.499L149.69 292.919V559.152H181.59V575.628H125.523Z" stroke="black" stroke-width="2.68527"/>
<path d="M122.837 286.705L106.726 296.734L87.9287 308.434L93.5 14L200 54L202.5 72L205 89L124 58L122.837 286.705Z" fill="url(#paint7_linear_60_44)"/>
<path d="M202.5 72L109.5 35.5L106.726 296.734M202.5 72L205 89L124 58L122.837 286.705L106.726 296.734M202.5 72L200 54L93.5 14L87.9287 308.434L106.726 296.734" stroke="black" stroke-width="2.68527"/>
<defs>
<linearGradient id="paint0_linear_60_44" x1="42.842" y1="768.965" x2="185.268" y2="768.965" gradientUnits="userSpaceOnUse">
<stop offset="0.38357" stop-color="#171A21"/>
<stop offset="0.578252" stop-color="#4C5155"/>
<stop offset="0.785912" stop-color="#171A21"/>
</linearGradient>
<linearGradient id="paint1_linear_60_44" x1="55.7051" y1="578.653" x2="189.969" y2="578.653" gradientUnits="userSpaceOnUse">
<stop offset="0.325067" stop-color="#585C68"/>
<stop offset="0.647906" stop-color="#B7C4CC"/>
<stop offset="0.911505" stop-color="#585C68"/>
</linearGradient>
<linearGradient id="paint2_linear_60_44" x1="58.8181" y1="143.932" x2="208.767" y2="143.932" gradientUnits="userSpaceOnUse">
<stop offset="0.325067" stop-color="#585C68"/>
<stop offset="0.647906" stop-color="#B7C4CC"/>
<stop offset="0.911505" stop-color="#585C68"/>
</linearGradient>
<linearGradient id="paint3_linear_60_44" x1="2" y1="216.493" x2="281.268" y2="216.493" gradientUnits="userSpaceOnUse">
<stop offset="0.325067" stop-color="#585C68"/>
<stop offset="0.647906" stop-color="#B7C4CC"/>
<stop offset="0.911505" stop-color="#585C68"/>
</linearGradient>
<linearGradient id="paint4_linear_60_44" x1="138.949" y1="157.686" x2="211.451" y2="157.686" gradientUnits="userSpaceOnUse">
<stop offset="0.325067" stop-color="#585C68"/>
<stop offset="0.647906" stop-color="#B7C4CC"/>
<stop offset="0.911505" stop-color="#585C68"/>
</linearGradient>
<linearGradient id="paint5_linear_60_44" x1="53.0202" y1="419.864" x2="187.284" y2="419.864" gradientUnits="userSpaceOnUse">
<stop offset="0.38357" stop-color="#171A21"/>
<stop offset="0.578252" stop-color="#4C5155"/>
<stop offset="0.785912" stop-color="#171A21"/>
</linearGradient>
<linearGradient id="paint6_linear_60_44" x1="53.0202" y1="419.864" x2="187.284" y2="419.864" gradientUnits="userSpaceOnUse">
<stop offset="0.38357" stop-color="#171A21"/>
<stop offset="0.578252" stop-color="#4C5155"/>
<stop offset="0.785912" stop-color="#171A21"/>
</linearGradient>
<linearGradient id="paint7_linear_60_44" x1="87.9287" y1="143.32" x2="205" y2="143.32" gradientUnits="userSpaceOnUse">
<stop offset="0.325067" stop-color="#585C68"/>
<stop offset="0.647906" stop-color="#B7C4CC"/>
<stop offset="0.911505" stop-color="#585C68"/>
</linearGradient>
</defs>
</svg>
