<svg width="196" height="1002" viewBox="0 0 196 1002" fill="none" xmlns="http://www.w3.org/2000/svg">
<path d="M26.168 568.601V951.846C78.4536 974.884 105.519 973.78 150.588 951.846V568.601H26.168Z" fill="url(#paint0_linear_5_30)" stroke="#60655E" stroke-width="2.1573"/>
<path d="M123.301 244.406H30.0449V431.449C92.7578 438.453 114.045 437.05 150.854 430.981V229.041L123.301 244.406Z" fill="url(#paint1_linear_5_30)" stroke="#60655E" stroke-width="2.1573"/>
<path d="M155.169 569.895C105.887 578.997 77.2138 579.604 23.573 569.895V427.513C74.9655 432.519 103.776 432.377 155.169 427.513V569.895Z" fill="black"/>
<path d="M2 241.985V166.48H17.1011V39.1986C23.573 -16.8913 77.5056 -2.1824 122.809 34.884C140.067 49.0046 155.169 78.0301 155.169 82.3447V171.333L165.955 172.951V218.255L122.809 241.985H66.7191V364.951C55.9326 373.581 51.618 373.581 40.8315 364.951L38.6742 241.985H2Z" fill="black"/>
<path d="M17.1011 166.48H2V241.985H38.6742M17.1011 166.48V39.1986C23.573 -16.8913 77.5056 -2.1824 122.809 34.884C140.067 49.0046 155.169 78.0301 155.169 82.3447V171.333M17.1011 166.48H122.809M122.809 241.985V213.94V166.48M122.809 241.985H66.7191M122.809 241.985L165.955 218.255V172.951L122.809 166.48M38.6742 241.985L40.8315 364.951C51.618 373.581 55.9326 373.581 66.7191 364.951V241.985M38.6742 241.985H66.7191M23.573 569.895C77.2138 579.604 105.887 578.997 155.169 569.895V427.513C103.776 432.377 74.9655 432.519 23.573 427.513V569.895Z" stroke="#202424" stroke-width="2.1573"/>
<path d="M21.4155 984.098V960.43C21.4155 957.335 24.5924 955.251 27.4556 956.427C74.7898 975.868 103.837 977.747 151.131 956.729C154.02 955.445 157.326 957.528 157.326 960.69V984.098C105.005 1006.14 75.1907 1004.49 21.4155 984.098Z" fill="url(#paint2_linear_5_30)" stroke="#60655E" stroke-width="2.1573"/>
<path d="M25.7305 953.895C58.09 971.154 103.15 977.646 150.854 953.895C107.111 972.371 81.7407 979.681 25.7305 953.895Z" stroke="black" stroke-width="4.31461" stroke-linejoin="round"/>
<path d="M187.528 431.828H155.168V563.423H187.528V431.828Z" fill="url(#paint3_linear_5_30)" stroke="#60655E" stroke-width="2.1573"/>
<circle cx="54.1467" cy="229.147" r="18.1467" fill="url(#paint4_linear_5_30)"/>
<circle cx="53.7751" cy="356.322" r="6.47191" fill="url(#paint5_linear_5_30)"/>
<path d="M57.2721 639.315H37.4714C37.0887 639.315 36.6996 639.366 36.3321 639.473C21.9391 643.659 21.0215 654.527 21.0215 658.802L24.5489 931.628C24.5489 951.116 40.7604 957.459 61.5867 959.777V643.629C61.5867 641.246 59.655 639.315 57.2721 639.315Z" fill="black"/>
<path d="M106.266 639.315H83.0309C80.6684 639.315 78.7453 641.215 78.7167 643.577L74.8833 959.777C89.6359 962.979 98.2788 963.68 115.449 959.777L110.58 643.563C110.544 641.206 108.623 639.315 106.266 639.315Z" fill="black"/>
<path d="M145.533 639.315H132.922C130.539 639.315 128.607 641.246 128.607 643.629V951.116C138.905 952.617 144.696 950.272 155.063 938.124L149.847 643.553C149.805 641.2 147.886 639.315 145.533 639.315Z" fill="black"/>
<path d="M75.3482 144.877H94.764C101.731 144.331 106.674 142.533 107.708 134.09V108.202C107.708 84.472 83.9774 73.7156 53.7752 73.7156C27.8876 73.7156 4.15723 84.472 4.15723 108.202V136.247C4.15723 136.247 4.15723 144.877 10.6291 144.877H32.2022" stroke="url(#paint6_linear_5_30)" stroke-width="4.31461" stroke-linejoin="round"/>
<circle cx="53.7754" cy="131.962" r="28.0449" fill="#202424"/>
<circle cx="53.7751" cy="131.963" r="18.1467" fill="url(#paint7_linear_5_30)"/>
<path d="M174.584 492.232L163.798 595.783H181.056L194 492.232H174.584Z" fill="url(#paint8_linear_5_30)" stroke="#D8DAD7" stroke-width="2.1573"/>
<circle cx="185.371" cy="500.861" r="4.31461" fill="url(#paint9_linear_5_30)"/>
<defs>
<linearGradient id="paint0_linear_5_30" x1="26.1217" y1="864.112" x2="150.738" y2="864.112" gradientUnits="userSpaceOnUse">
<stop offset="0.145833" stop-color="#878E8C"/>
<stop offset="0.645833" stop-color="#D6D3CE"/>
<stop offset="0.744792" stop-color="#D9D6D1"/>
<stop offset="1" stop-color="#7E8177"/>
</linearGradient>
<linearGradient id="paint1_linear_5_30" x1="30" y1="382" x2="151" y2="382" gradientUnits="userSpaceOnUse">
<stop offset="0.145833" stop-color="#878E8C"/>
<stop offset="0.645833" stop-color="#D6D3CE"/>
<stop offset="0.744792" stop-color="#D9D6D1"/>
<stop offset="1" stop-color="#7E8177"/>
</linearGradient>
<linearGradient id="paint2_linear_5_30" x1="21.365" y1="987.959" x2="157.49" y2="987.959" gradientUnits="userSpaceOnUse">
<stop offset="0.145833" stop-color="#878E8C"/>
<stop offset="0.645833" stop-color="#D6D3CE"/>
<stop offset="0.744792" stop-color="#D9D6D1"/>
<stop offset="1" stop-color="#7E8177"/>
</linearGradient>
<linearGradient id="paint3_linear_5_30" x1="155.156" y1="529.02" x2="187.567" y2="529.02" gradientUnits="userSpaceOnUse">
<stop offset="0.145833" stop-color="#878E8C"/>
<stop offset="0.645833" stop-color="#D6D3CE"/>
<stop offset="0.744792" stop-color="#D9D6D1"/>
<stop offset="1" stop-color="#7E8177"/>
</linearGradient>
<linearGradient id="paint4_linear_5_30" x1="35.9865" y1="237.805" x2="72.3373" y2="237.805" gradientUnits="userSpaceOnUse">
<stop offset="0.145833" stop-color="#878E8C"/>
<stop offset="0.645833" stop-color="#D6D3CE"/>
<stop offset="0.744792" stop-color="#D9D6D1"/>
<stop offset="1" stop-color="#7E8177"/>
</linearGradient>
<linearGradient id="paint5_linear_5_30" x1="47.2984" y1="359.41" x2="60.2627" y2="359.41" gradientUnits="userSpaceOnUse">
<stop offset="0.145833" stop-color="#878E8C"/>
<stop offset="0.645833" stop-color="#D6D3CE"/>
<stop offset="0.744792" stop-color="#D9D6D1"/>
<stop offset="1" stop-color="#7E8177"/>
</linearGradient>
<linearGradient id="paint6_linear_5_30" x1="4.11872" y1="126.273" x2="107.833" y2="126.273" gradientUnits="userSpaceOnUse">
<stop offset="0.145833" stop-color="#878E8C"/>
<stop offset="0.645833" stop-color="#D6D3CE"/>
<stop offset="0.744792" stop-color="#D9D6D1"/>
<stop offset="1" stop-color="#7E8177"/>
</linearGradient>
<linearGradient id="paint7_linear_5_30" x1="35.6149" y1="140.621" x2="71.9658" y2="140.621" gradientUnits="userSpaceOnUse">
<stop offset="0.145833" stop-color="#878E8C"/>
<stop offset="0.645833" stop-color="#D6D3CE"/>
<stop offset="0.744792" stop-color="#D9D6D1"/>
<stop offset="1" stop-color="#7E8177"/>
</linearGradient>
<linearGradient id="paint8_linear_5_30" x1="163.787" y1="568.712" x2="194.037" y2="568.712" gradientUnits="userSpaceOnUse">
<stop offset="0.145833" stop-color="#878E8C"/>
<stop offset="0.645833" stop-color="#D6D3CE"/>
<stop offset="0.744792" stop-color="#D9D6D1"/>
<stop offset="1" stop-color="#7E8177"/>
</linearGradient>
<linearGradient id="paint9_linear_5_30" x1="181.053" y1="502.92" x2="189.696" y2="502.92" gradientUnits="userSpaceOnUse">
<stop offset="0.145833" stop-color="#878E8C"/>
<stop offset="0.645833" stop-color="#D6D3CE"/>
<stop offset="0.744792" stop-color="#D9D6D1"/>
<stop offset="1" stop-color="#7E8177"/>
</linearGradient>
</defs>
</svg>
