<svg width="185" height="977" viewBox="0 0 185 977" fill="none" xmlns="http://www.w3.org/2000/svg">
<path d="M13.8107 911.387C62.7486 925.108 93.5297 928.712 145.121 912.187V886.566C98.6817 886.566 65.0536 890.568 13.8107 889.768V911.387Z" fill="#1B221A" stroke="black" stroke-width="1.60134"/>
<path d="M143.519 37.8557H18.6143C10.4499 69.7582 9.01018 87.6391 10.6076 119.524C18.7462 222.163 19.2574 279.045 10.6076 378.941V883.511C10.6076 907.383 148.323 907.383 148.323 883.511V378.941C142.174 277.654 151.525 119.524 151.525 119.524C153.123 87.6391 151.683 69.7582 143.519 37.8557Z" fill="url(#paint0_linear_55_7)"/>
<path d="M13.8108 912.187V929.802V953.822C13.8108 984.247 145.121 982.646 145.121 953.822V931.403V912.187C95.4129 927.83 66.4806 926.02 13.8108 912.187Z" fill="url(#paint1_linear_55_7)"/>
<path d="M143.519 37.8557H18.6143C10.4499 69.7582 9.01018 87.6391 10.6076 119.524C18.7462 222.163 19.2574 279.045 10.6076 378.941V883.511C10.6076 907.383 148.323 907.383 148.323 883.511V378.941C142.174 277.654 151.525 119.524 151.525 119.524C153.123 87.6391 151.683 69.7582 143.519 37.8557Z" stroke="black" stroke-width="1.60134"/>
<path d="M13.8108 912.187V929.802V953.822C13.8108 984.247 145.121 982.646 145.121 953.822V931.403V912.187C95.4129 927.83 66.4806 926.02 13.8108 912.187Z" stroke="black" stroke-width="1.60134"/>
<path d="M143.521 37.8558H18.6168V15.437C52.2449 -5.38053 111.495 -2.17762 143.521 15.437V37.8558Z" fill="url(#paint2_linear_55_7)"/>
<path d="M122.702 209.199V308.482C132.08 311.588 142.15 311.879 151.528 308.482V209.199C142.147 205.469 132.085 204.952 122.702 209.199Z" fill="url(#paint3_linear_55_7)"/>
<path d="M63.8925 201.766C77.0258 198.644 88.7509 198.274 101.885 201.192V300.475C90.1922 302.552 78.8306 303.654 63.8925 301.049V201.766Z" fill="url(#paint4_linear_55_7)"/>
<path d="M41.0336 209.199C34.3788 207.271 16.5073 207.475 10.6101 209.199V308.482C18.8311 312.26 36.591 311.96 41.0336 308.482V209.199Z" fill="url(#paint5_linear_55_7)"/>
<path d="M145.123 931.403C93.9135 949.784 65.5277 949.314 15.4141 931.403V950.619C63.3757 966.462 91.7029 966.76 145.123 950.619V931.403Z" fill="url(#paint6_linear_55_7)"/>
<path d="M149.925 473.42H9.00684C4.20113 473.42 4.20113 463.812 9.00684 463.812V447.799C4.20113 447.799 4.20113 438.191 9.00684 438.191V422.177C4.20113 422.177 4.20113 412.569 9.00684 412.569V396.556C4.20109 396.556 4.20109 386.948 9.00684 386.948H149.925C154.727 386.948 154.727 396.556 149.925 396.556V412.569C154.727 412.569 154.727 422.177 149.925 422.177V438.191C154.727 438.191 154.727 447.799 149.925 447.799V463.812C154.729 463.812 154.729 473.42 149.925 473.42Z" fill="url(#paint7_linear_55_7)"/>
<path d="M12.2111 809.701C7.11571 815.329 7.42312 818.486 12.2111 824.113C65.2305 831.059 101.135 834.287 148.325 824.113C152.877 817.429 151.848 814.513 148.325 809.701C98.2954 822.201 63.2503 817.408 12.2111 809.701Z" fill="url(#paint8_linear_55_7)"/>
<path d="M146.722 183.578C104.09 187.701 59.1454 188.202 15.4141 183.578C15.4141 161.159 57.047 127.531 69.8577 127.531H98.6819C109.891 127.531 146.722 169.166 146.722 183.578Z" fill="url(#paint9_linear_55_7)"/>
<path d="M9.00684 422.177H149.925M9.00684 422.177C4.20113 422.177 4.20113 412.569 9.00684 412.569M9.00684 422.177V438.191M149.925 422.177C154.727 422.177 154.727 412.569 149.925 412.569M149.925 422.177V438.191M149.925 412.569H9.00684M149.925 412.569V396.556M9.00684 412.569V396.556M9.00684 396.556C4.20109 396.556 4.20109 386.948 9.00684 386.948H149.925C154.727 386.948 154.727 396.556 149.925 396.556M9.00684 396.556H149.925M149.925 438.191H9.00684M149.925 438.191C154.727 438.191 154.727 447.799 149.925 447.799M9.00684 438.191C4.20113 438.191 4.20113 447.799 9.00684 447.799M9.00684 447.799H149.925M9.00684 447.799V463.812M149.925 447.799V463.812M149.925 463.812C154.729 463.812 154.729 473.42 149.925 473.42H9.00684C4.20113 473.42 4.20113 463.812 9.00684 463.812M149.925 463.812H9.00684M18.6168 37.8558H143.521V15.437C111.495 -2.17762 52.2449 -5.38053 18.6168 15.437V37.8558ZM122.702 308.482V209.199C132.085 204.952 142.147 205.469 151.528 209.199V308.482C142.15 311.879 132.08 311.588 122.702 308.482ZM101.885 201.192C88.7509 198.274 77.0258 198.644 63.8925 201.766V301.049C78.8306 303.654 90.1922 302.552 101.885 300.475V201.192ZM10.6101 209.199C16.5073 207.475 34.3788 207.271 41.0336 209.199V308.482C36.591 311.96 18.8311 312.26 10.6101 308.482V209.199ZM15.4141 931.403C65.5277 949.314 93.9135 949.784 145.123 931.403V950.619C91.7029 966.76 63.3757 966.462 15.4141 950.619V931.403ZM12.2111 824.113C7.42312 818.486 7.11571 815.329 12.2111 809.701C63.2503 817.408 98.2954 822.201 148.325 809.701C151.848 814.513 152.877 817.429 148.325 824.113C101.135 834.287 65.2305 831.059 12.2111 824.113ZM15.4141 183.578C59.1454 188.202 104.09 187.701 146.722 183.578C146.722 169.166 109.891 127.531 98.6819 127.531H69.8577C57.047 127.531 15.4141 161.159 15.4141 183.578Z" stroke="#5D553D" stroke-width="1.60134"/>
<path d="M18.6148 488.046C18.6148 480.039 1.00006 478.438 1.00006 488.046V800.307C1.00006 805.111 18.6148 805.111 18.6148 800.307V488.046Z" fill="#232522"/>
<path d="M53.8443 488.046C53.8443 480.039 36.2295 478.438 36.2295 488.046V800.307C36.2295 805.111 53.8443 805.111 53.8443 800.307V488.046Z" fill="#232522"/>
<path d="M92.2764 488.046C92.2764 480.039 74.6617 478.438 74.6617 488.046V800.307C74.6617 805.111 92.2764 805.111 92.2764 800.307V488.046Z" fill="#232522"/>
<path d="M127.506 488.046C127.506 480.039 109.891 478.438 109.891 488.046V800.307C109.891 805.111 127.506 805.111 127.506 800.307V488.046Z" fill="#232522"/>
<path d="M162.735 488.046C162.735 480.039 145.121 478.438 145.121 488.046V800.307C145.121 805.111 162.735 805.111 162.735 800.307V488.046Z" fill="#232522"/>
<path d="M18.6148 488.046C18.6148 480.039 1.00006 478.438 1.00006 488.046V800.307C1.00006 805.111 18.6148 805.111 18.6148 800.307V488.046Z" stroke="black" stroke-width="1.60134"/>
<path d="M53.8443 488.046C53.8443 480.039 36.2295 478.438 36.2295 488.046V800.307C36.2295 805.111 53.8443 805.111 53.8443 800.307V488.046Z" stroke="black" stroke-width="1.60134"/>
<path d="M92.2764 488.046C92.2764 480.039 74.6617 478.438 74.6617 488.046V800.307C74.6617 805.111 92.2764 805.111 92.2764 800.307V488.046Z" stroke="black" stroke-width="1.60134"/>
<path d="M127.506 488.046C127.506 480.039 109.891 478.438 109.891 488.046V800.307C109.891 805.111 127.506 805.111 127.506 800.307V488.046Z" stroke="black" stroke-width="1.60134"/>
<path d="M162.735 488.046C162.735 480.039 145.121 478.438 145.121 488.046V800.307C145.121 805.111 162.735 805.111 162.735 800.307V488.046Z" stroke="black" stroke-width="1.60134"/>
<path d="M164.337 833.722H148.323V852.938H164.337V833.722Z" fill="#9F8F76" stroke="black" stroke-width="1.60134"/>
<path d="M164.337 814.505V872.154H173.945V862.805H179.95V872.154H183.553V814.505H179.95V825.412H173.945V814.505H164.337Z" fill="#31342D" stroke="black" stroke-width="1.60134"/>
<ellipse cx="82.6683" cy="250.834" rx="14.4121" ry="22.4188" fill="url(#paint10_radial_55_7)"/>
<defs>
<linearGradient id="paint0_linear_55_7" x1="10.6081" y1="356.522" x2="151.526" y2="356.522" gradientUnits="userSpaceOnUse">
<stop stop-color="#A1A6A0"/>
<stop offset="0.348598" stop-color="#616360"/>
<stop offset="0.572972" stop-color="#ECEFEE"/>
<stop offset="0.635473" stop-color="#F9FCFB"/>
<stop offset="0.734433" stop-color="#E3E4E4"/>
<stop offset="0.831766" stop-color="#5E635F"/>
<stop offset="1" stop-color="#C8CBC2"/>
</linearGradient>
<linearGradient id="paint1_linear_55_7" x1="10.6081" y1="356.522" x2="151.526" y2="356.522" gradientUnits="userSpaceOnUse">
<stop stop-color="#A1A6A0"/>
<stop offset="0.348598" stop-color="#616360"/>
<stop offset="0.572972" stop-color="#ECEFEE"/>
<stop offset="0.635473" stop-color="#F9FCFB"/>
<stop offset="0.734433" stop-color="#E3E4E4"/>
<stop offset="0.831766" stop-color="#5E635F"/>
<stop offset="1" stop-color="#C8CBC2"/>
</linearGradient>
<linearGradient id="paint2_linear_55_7" x1="4.20282" y1="290.867" x2="154.729" y2="290.867" gradientUnits="userSpaceOnUse">
<stop offset="0.0729167" stop-color="#A19960"/>
<stop offset="0.364635" stop-color="#4C4731"/>
<stop offset="0.568288" stop-color="#F6EB91"/>
<stop offset="0.846605" stop-color="#524D34"/>
<stop offset="1" stop-color="#C3B974"/>
</linearGradient>
<linearGradient id="paint3_linear_55_7" x1="4.20282" y1="290.867" x2="154.729" y2="290.867" gradientUnits="userSpaceOnUse">
<stop offset="0.0729167" stop-color="#A19960"/>
<stop offset="0.364635" stop-color="#4C4731"/>
<stop offset="0.568288" stop-color="#F6EB91"/>
<stop offset="0.846605" stop-color="#524D34"/>
<stop offset="1" stop-color="#C3B974"/>
</linearGradient>
<linearGradient id="paint4_linear_55_7" x1="4.20282" y1="290.867" x2="154.729" y2="290.867" gradientUnits="userSpaceOnUse">
<stop offset="0.0729167" stop-color="#A19960"/>
<stop offset="0.364635" stop-color="#4C4731"/>
<stop offset="0.568288" stop-color="#F6EB91"/>
<stop offset="0.846605" stop-color="#524D34"/>
<stop offset="1" stop-color="#C3B974"/>
</linearGradient>
<linearGradient id="paint5_linear_55_7" x1="4.20282" y1="290.867" x2="154.729" y2="290.867" gradientUnits="userSpaceOnUse">
<stop offset="0.0729167" stop-color="#A19960"/>
<stop offset="0.364635" stop-color="#4C4731"/>
<stop offset="0.568288" stop-color="#F6EB91"/>
<stop offset="0.846605" stop-color="#524D34"/>
<stop offset="1" stop-color="#C3B974"/>
</linearGradient>
<linearGradient id="paint6_linear_55_7" x1="4.20282" y1="290.867" x2="154.729" y2="290.867" gradientUnits="userSpaceOnUse">
<stop offset="0.0729167" stop-color="#A19960"/>
<stop offset="0.364635" stop-color="#4C4731"/>
<stop offset="0.568288" stop-color="#F6EB91"/>
<stop offset="0.846605" stop-color="#524D34"/>
<stop offset="1" stop-color="#C3B974"/>
</linearGradient>
<linearGradient id="paint7_linear_55_7" x1="4.20282" y1="290.867" x2="154.729" y2="290.867" gradientUnits="userSpaceOnUse">
<stop offset="0.0729167" stop-color="#A19960"/>
<stop offset="0.364635" stop-color="#4C4731"/>
<stop offset="0.568288" stop-color="#F6EB91"/>
<stop offset="0.846605" stop-color="#524D34"/>
<stop offset="1" stop-color="#C3B974"/>
</linearGradient>
<linearGradient id="paint8_linear_55_7" x1="4.20282" y1="290.867" x2="154.729" y2="290.867" gradientUnits="userSpaceOnUse">
<stop offset="0.0729167" stop-color="#A19960"/>
<stop offset="0.364635" stop-color="#4C4731"/>
<stop offset="0.568288" stop-color="#F6EB91"/>
<stop offset="0.846605" stop-color="#524D34"/>
<stop offset="1" stop-color="#C3B974"/>
</linearGradient>
<linearGradient id="paint9_linear_55_7" x1="4.20282" y1="290.867" x2="154.729" y2="290.867" gradientUnits="userSpaceOnUse">
<stop offset="0.0729167" stop-color="#A19960"/>
<stop offset="0.364635" stop-color="#4C4731"/>
<stop offset="0.568288" stop-color="#F6EB91"/>
<stop offset="0.846605" stop-color="#524D34"/>
<stop offset="1" stop-color="#C3B974"/>
</linearGradient>
<radialGradient id="paint10_radial_55_7" cx="0" cy="0" r="1" gradientUnits="userSpaceOnUse" gradientTransform="translate(82.6683 250.834) rotate(90) scale(22.4188 18.0498)">
<stop stop-color="#DDD75C"/>
<stop offset="0.575701" stop-color="#BCA942"/>
</radialGradient>
</defs>
</svg>
