<svg width="233" height="854" viewBox="0 0 233 854" fill="none" xmlns="http://www.w3.org/2000/svg">
<path d="M232.5 215.5C232.5 227.884 224.5 233.5 214 233.5C195.5 233.5 195.5 225.441 195.5 215.5C195.5 205.559 195.5 197.5 214 197.5C226.855 197.5 232.5 203.116 232.5 215.5Z" fill="url(#paint0_radial_44_13)" stroke="black" stroke-width="0.5"/>
<path d="M199 551H50L42.5 536.5H24L16.5 404.5H0.5V344H42.5L50.5 331H198L207 344V536.5L199 551Z" fill="url(#paint1_linear_44_13)"/>
<path d="M78.5 133V124.5L62.5 119.5V105.5C52.596 100.459 52.2014 95.5748 61 84.8649C83.2271 82.7327 95.8947 82.2479 119.5 84.8649L139.5 94.0001C159.646 95.0917 169.878 97.3628 185.5 105.5V119.5L174.5 124.5V133H78.5Z" fill="url(#paint2_linear_44_13)"/>
<path d="M207 145H199V233H207V145Z" fill="url(#paint3_linear_44_13)"/>
<path d="M42.5 344L50.5 331H198L207 344V536.5L199 551H50L42.5 536.5M42.5 344H0.5V404.5H16.5L24 536.5H42.5M42.5 344V536.5M62.5 105.5V119.5L78.5 124.5V133H174.5V124.5L185.5 119.5V105.5M62.5 105.5H185.5M62.5 105.5C52.596 100.459 52.2014 95.5748 61 84.8649C83.2271 82.7327 95.8947 82.2479 119.5 84.8649L139.5 94.0001C159.646 95.0917 169.878 97.3628 185.5 105.5M199 145H207V233H199V145Z" stroke="#151714" stroke-width="0.5"/>
<path d="M198 330.499L199.5 143.5C178 122.5 67 123 50 143.5V330.499H198Z" fill="url(#paint4_linear_44_13)"/>
<path d="M199.5 551V820V841.5C143.732 857.651 106.285 855.91 50 841.5V820V551H199.5Z" fill="url(#paint5_linear_44_13)"/>
<path d="M125.001 96.0008C151.501 96.0008 168.341 101.21 178.5 106.5C184.059 109.395 183.929 117.033 178.5 122V133.766L187.313 136.521V129.588C187.313 122.588 199.455 125.088 199.455 116.587V16.0876C199.455 -5.91278 145.956 -1.43859 127.456 14.0884C108.957 29.6154 90.3553 96.0008 125.001 96.0008Z" fill="url(#paint6_linear_44_13)"/>
<path d="M199.5 820V551H50V820M199.5 820V841.5C143.732 857.651 106.285 855.91 50 841.5V820M199.5 820C143.46 831.327 106.04 830.192 50 820M199.5 143.5L198 330.499H50V143.5C67 123 178 122.5 199.5 143.5ZM178.5 106.5C168.341 101.21 151.501 96.0008 125.001 96.0008C90.3553 96.0008 108.957 29.6154 127.456 14.0884C145.956 -1.43859 199.455 -5.91278 199.455 16.0876V116.587C199.455 125.088 187.313 122.588 187.313 129.588V136.521L178.5 133.766V122C183.929 117.033 184.059 109.395 178.5 106.5Z" stroke="black" stroke-width="0.5"/>
<circle cx="131.5" cy="378.5" r="8.5" fill="#D9D9D9"/>
<circle cx="131.5" cy="378.5" r="3.5" fill="black"/>
<path d="M64.6879 796.197C56.4802 799.564 47.1879 796.197 40.6879 791.697C39.2569 705.455 37.3997 659.827 38.1879 574.697C48.1879 570.697 58.1879 574.697 64.6879 577.197C65.4734 663.518 66.0488 712.051 64.6879 796.197Z" fill="url(#paint7_linear_44_13)"/>
<path d="M163.188 803.197C133.827 807.594 117.605 807.599 89.1879 803.197C85.085 717.086 87.3244 668.808 89.1879 582.697C118.087 578.664 134.289 577.567 163.188 582.697C164.423 668.808 166.867 717.086 163.188 803.197Z" fill="url(#paint8_linear_44_13)"/>
<path d="M188.188 577.197C188.225 659.576 188.224 706.47 188.188 791.697C200.636 797.025 206.188 794.197 211.688 788.197C213.343 704.909 215.308 661.434 213.688 577.197C202.433 572.159 196.533 574.586 188.188 577.197Z" fill="url(#paint9_linear_44_13)"/>
<path d="M64.6879 796.197C56.4802 799.564 47.1879 796.197 40.6879 791.697C39.2569 705.455 37.3997 659.827 38.1879 574.697C48.1879 570.697 58.1879 574.697 64.6879 577.197C65.4734 663.518 66.0488 712.051 64.6879 796.197Z" stroke="#151714" stroke-width="0.5"/>
<path d="M163.188 803.197C133.827 807.594 117.605 807.599 89.1879 803.197C85.085 717.086 87.3244 668.808 89.1879 582.697C118.087 578.664 134.289 577.567 163.188 582.697C164.423 668.808 166.867 717.086 163.188 803.197Z" stroke="#151714" stroke-width="0.5"/>
<path d="M188.188 577.197C188.225 659.576 188.224 706.47 188.188 791.697C200.636 797.025 206.188 794.197 211.688 788.197C213.343 704.909 215.308 661.434 213.688 577.197C202.433 572.159 196.533 574.586 188.188 577.197Z" stroke="#151714" stroke-width="0.5"/>
<defs>
<radialGradient id="paint0_radial_44_13" cx="0" cy="0" r="1" gradientUnits="userSpaceOnUse" gradientTransform="translate(214 215) scale(25.5 12.7395)">
<stop offset="0.142262" stop-color="#D6D3CE"/>
<stop offset="0.522311" stop-color="#878E8C"/>
<stop offset="1" stop-color="#7E8177"/>
</radialGradient>
<linearGradient id="paint1_linear_44_13" x1="0.5" y1="234.861" x2="207.014" y2="238.759" gradientUnits="userSpaceOnUse">
<stop offset="0.390625"/>
<stop offset="0.727791" stop-color="#4D5552"/>
<stop offset="0.911458"/>
</linearGradient>
<linearGradient id="paint2_linear_44_13" x1="0.5" y1="234.861" x2="207.014" y2="238.759" gradientUnits="userSpaceOnUse">
<stop offset="0.390625"/>
<stop offset="0.727791" stop-color="#4D5552"/>
<stop offset="0.911458"/>
</linearGradient>
<linearGradient id="paint3_linear_44_13" x1="0.5" y1="234.861" x2="207.014" y2="238.759" gradientUnits="userSpaceOnUse">
<stop offset="0.390625"/>
<stop offset="0.727791" stop-color="#4D5552"/>
<stop offset="0.911458"/>
</linearGradient>
<linearGradient id="paint4_linear_44_13" x1="50" y1="331" x2="199" y2="331" gradientUnits="userSpaceOnUse">
<stop offset="0.234375" stop-color="#5A5F59"/>
<stop offset="0.460359" stop-color="#868C8B"/>
<stop offset="0.66841" stop-color="#C9D2D7"/>
<stop offset="1" stop-color="#5A5F59"/>
</linearGradient>
<linearGradient id="paint5_linear_44_13" x1="50" y1="331" x2="199" y2="331" gradientUnits="userSpaceOnUse">
<stop offset="0.234375" stop-color="#5A5F59"/>
<stop offset="0.460359" stop-color="#868C8B"/>
<stop offset="0.66841" stop-color="#C9D2D7"/>
<stop offset="1" stop-color="#5A5F59"/>
</linearGradient>
<linearGradient id="paint6_linear_44_13" x1="50" y1="331" x2="199" y2="331" gradientUnits="userSpaceOnUse">
<stop offset="0.234375" stop-color="#5A5F59"/>
<stop offset="0.460359" stop-color="#868C8B"/>
<stop offset="0.66841" stop-color="#C9D2D7"/>
<stop offset="1" stop-color="#5A5F59"/>
</linearGradient>
<linearGradient id="paint7_linear_44_13" x1="38" y1="648.741" x2="214.184" y2="654.429" gradientUnits="userSpaceOnUse">
<stop offset="0.390625"/>
<stop offset="0.727791" stop-color="#4D5552"/>
<stop offset="0.911458"/>
</linearGradient>
<linearGradient id="paint8_linear_44_13" x1="38" y1="648.741" x2="214.184" y2="654.429" gradientUnits="userSpaceOnUse">
<stop offset="0.390625"/>
<stop offset="0.727791" stop-color="#4D5552"/>
<stop offset="0.911458"/>
</linearGradient>
<linearGradient id="paint9_linear_44_13" x1="38" y1="648.741" x2="214.184" y2="654.429" gradientUnits="userSpaceOnUse">
<stop offset="0.390625"/>
<stop offset="0.727791" stop-color="#4D5552"/>
<stop offset="0.911458"/>
</linearGradient>
</defs>
</svg>
